<svg width="1146" height="225" viewBox="0 0 1146 225" fill="none" xmlns="http://www.w3.org/2000/svg">
<path fill-rule="evenodd" clip-rule="evenodd" d="M818.298 101.68C810.738 101.68 803.691 100.467 797.158 98.0401C790.718 95.5201 785.118 91.9734 780.358 87.4001C775.598 82.8267 771.864 77.4601 769.158 71.3001C766.544 65.1401 765.238 58.3734 765.238 51.0001C765.238 43.6267 766.544 36.8601 769.158 30.7001C771.864 24.5401 775.598 19.1734 780.358 14.6001C785.211 10.0267 790.858 6.52673 797.298 4.10006C803.738 1.58006 810.784 0.320068 818.438 0.320068C826.931 0.320068 834.584 1.8134 841.398 4.80007C848.304 7.6934 854.091 11.9867 858.758 17.6801L844.198 31.1201C840.838 27.2934 837.104 24.4467 832.997 22.5801C828.891 20.6201 824.411 19.6401 819.558 19.6401C814.984 19.6401 810.784 20.3867 806.958 21.8801C803.131 23.3734 799.818 25.5201 797.018 28.3201C794.218 31.1201 792.024 34.4334 790.438 38.2601C788.944 42.0867 788.198 46.3334 788.198 51.0001C788.198 55.6667 788.944 59.9134 790.438 63.7401C792.024 67.5667 794.218 70.8801 797.018 73.6801C799.818 76.4801 803.131 78.6267 806.958 80.1201C810.784 81.6134 814.984 82.3601 819.558 82.3601C824.411 82.3601 828.891 81.4267 832.997 79.5601C837.104 77.6001 840.838 74.6601 844.198 70.7401L858.758 84.1801C854.091 89.8734 848.304 94.2134 841.398 97.2001C834.584 100.187 826.884 101.68 818.298 101.68ZM1123.27 73.9601V100H1145.67V2.00006H1103.39C1094.8 2.00006 1087.33 3.44673 1080.99 6.34007C1074.64 9.2334 1069.69 13.4334 1066.15 18.9401C1062.69 24.3534 1060.97 30.8867 1060.97 38.5401C1060.97 45.9134 1062.6 52.2601 1065.87 57.5801C1069.13 62.9001 1073.85 66.9601 1080.01 69.7601C1080.56 70.0133 1081.13 70.2552 1081.71 70.4855L1061.25 100H1085.19L1102.51 73.9601H1123.27ZM1123.27 56.0401V20.4801H1103.95C1097.51 20.4801 1092.56 21.9734 1089.11 24.9601C1085.75 27.9467 1084.07 32.3801 1084.07 38.2601C1084.07 43.9534 1085.7 48.3401 1088.97 51.4201C1092.23 54.5001 1097.04 56.0401 1103.39 56.0401H1123.27ZM262.002 224.68C254.255 224.68 247.069 223.42 240.442 220.9C233.909 218.38 228.215 214.833 223.362 210.26C218.602 205.687 214.869 200.32 212.162 194.16C209.549 188 208.242 181.28 208.242 174C208.242 166.72 209.549 160 212.162 153.84C214.869 147.68 218.649 142.313 223.502 137.74C228.355 133.167 234.049 129.62 240.582 127.1C247.115 124.58 254.209 123.32 261.862 123.32C269.609 123.32 276.702 124.58 283.142 127.1C289.675 129.62 295.322 133.167 300.082 137.74C304.935 142.313 308.715 147.68 311.422 153.84C314.129 159.907 315.482 166.627 315.482 174C315.482 181.28 314.129 188.047 311.422 194.3C308.715 200.46 304.935 205.827 300.082 210.4C295.322 214.88 289.675 218.38 283.142 220.9C276.702 223.42 269.655 224.68 262.002 224.68ZM261.862 205.36C266.249 205.36 270.262 204.613 273.902 203.12C277.635 201.627 280.902 199.48 283.702 196.68C286.502 193.88 288.649 190.567 290.142 186.74C291.729 182.913 292.522 178.667 292.522 174C292.522 169.333 291.729 165.087 290.142 161.26C288.649 157.433 286.502 154.12 283.702 151.32C280.995 148.52 277.775 146.373 274.042 144.88C270.309 143.387 266.249 142.64 261.862 142.64C257.475 142.64 253.415 143.387 249.682 144.88C246.042 146.373 242.822 148.52 240.022 151.32C237.222 154.12 235.029 157.433 233.442 161.26C231.949 165.087 231.202 169.333 231.202 174C231.202 178.573 231.949 182.82 233.442 186.74C235.029 190.567 237.175 193.88 239.882 196.68C242.682 199.48 245.949 201.627 249.682 203.12C253.415 204.613 257.475 205.36 261.862 205.36ZM797.158 221.04C803.691 223.467 810.738 224.68 818.298 224.68C826.884 224.68 834.584 223.187 841.398 220.2C848.304 217.213 854.091 212.873 858.758 207.18L844.198 193.74C840.838 197.66 837.104 200.6 832.997 202.56C828.891 204.427 824.411 205.36 819.558 205.36C814.984 205.36 810.784 204.613 806.958 203.12C803.131 201.627 799.818 199.48 797.018 196.68C794.218 193.88 792.024 190.567 790.438 186.74C788.944 182.913 788.198 178.667 788.198 174C788.198 169.333 788.944 165.087 790.438 161.26C792.024 157.433 794.218 154.12 797.018 151.32C799.818 148.52 803.131 146.373 806.958 144.88C810.784 143.387 814.984 142.64 819.558 142.64C824.411 142.64 828.891 143.62 832.997 145.58C837.104 147.447 840.838 150.293 844.198 154.12L858.758 140.68C854.091 134.987 848.304 130.693 841.398 127.8C834.584 124.813 826.931 123.32 818.438 123.32C810.784 123.32 803.738 124.58 797.298 127.1C790.858 129.527 785.211 133.027 780.358 137.6C775.598 142.173 771.864 147.54 769.158 153.7C766.544 159.86 765.238 166.627 765.238 174C765.238 181.373 766.544 188.14 769.158 194.3C771.864 200.46 775.598 205.827 780.358 210.4C785.118 214.973 790.718 218.52 797.158 221.04ZM949.42 223H873.54V125H947.6V143.2H896.08V164.48H941.58V182.12H896.08V204.8H949.42V223ZM1046.84 125H967.739V223H1014.22C1026.82 223 1036.57 220.293 1043.48 214.88C1050.39 209.467 1053.84 201.907 1053.84 192.2C1053.84 182.773 1050.71 175.587 1044.46 170.64C1038.3 165.693 1029.29 163.22 1017.44 163.22H990.279V143.06H1046.84V125ZM1012.96 206.2H990.279V179.88H1012.96C1024.91 179.88 1030.88 184.173 1030.88 192.76C1030.88 197.147 1029.34 200.507 1026.26 202.84C1023.18 205.08 1018.75 206.2 1012.96 206.2ZM1123.27 196.96V223H1145.67V125H1103.39C1094.8 125 1087.33 126.447 1080.99 129.34C1074.64 132.233 1069.69 136.433 1066.15 141.94C1062.69 147.353 1060.97 153.887 1060.97 161.54C1060.97 168.913 1062.6 175.26 1065.87 180.58C1069.13 185.9 1073.85 189.96 1080.01 192.76C1080.56 193.013 1081.13 193.255 1081.71 193.486L1061.25 223H1085.19L1102.51 196.96H1123.27ZM1123.27 143.48H1103.95C1097.51 143.48 1092.56 144.973 1089.11 147.96C1085.75 150.947 1084.07 155.38 1084.07 161.26C1084.07 166.953 1085.7 171.34 1088.97 174.42C1092.23 177.5 1097.04 179.04 1103.39 179.04H1123.27V143.48ZM631.411 223V125H653.951V157.2H678.871C690.724 157.2 699.871 159.86 706.311 165.18C712.751 170.407 715.971 178.293 715.971 188.84C715.971 200.04 712.377 208.533 705.191 214.32C698.097 220.107 688.251 223 675.651 223H631.411ZM653.951 206.2H674.391C680.177 206.2 684.751 204.753 688.111 201.86C691.471 198.967 693.151 194.767 693.151 189.26C693.151 183.847 691.471 179.973 688.111 177.64C684.844 175.213 680.271 174 674.391 174H653.951V206.2ZM531.469 125V223H554.149V195.98H573.889C582.663 195.98 590.223 194.58 596.569 191.78C602.916 188.887 607.816 184.78 611.269 179.46C614.723 174.14 616.449 167.84 616.449 160.56C616.449 153.187 614.723 146.84 611.269 141.52C607.816 136.2 602.916 132.14 596.569 129.34C590.223 126.447 582.663 125 573.889 125H531.469ZM554.149 177.5H572.629C579.629 177.5 584.856 176.007 588.309 173.02C591.763 170.033 593.489 165.88 593.489 160.56C593.489 155.147 591.763 150.947 588.309 147.96C584.856 144.973 579.629 143.48 572.629 143.48H554.149V177.5ZM437.27 223V125H511.33V143.2H459.81V164.48H505.31V182.12H459.81V204.8H513.15V223H437.27ZM332.954 125V223H381.254C393.667 223 403.094 220.573 409.534 215.72C416.067 210.773 419.334 204.007 419.334 195.42C419.334 187.113 416.3 180.767 410.234 176.38C407.618 174.489 404.544 173.006 401.009 171.93C402.708 171.118 404.29 170.175 405.754 169.1C411.727 164.62 414.714 158.367 414.714 150.34C414.714 142.22 411.54 135.967 405.194 131.58C398.847 127.193 389.98 125 378.594 125H332.954ZM380.414 206.2H355.494V181.42H380.414C385.64 181.42 389.607 182.447 392.314 184.5C395.02 186.46 396.374 189.493 396.374 193.6C396.374 197.893 395.02 201.067 392.314 203.12C389.607 205.173 385.64 206.2 380.414 206.2ZM376.634 165.6H355.494V141.8H376.634C381.58 141.8 385.314 142.827 387.834 144.88C390.354 146.84 391.614 149.78 391.614 153.7C391.614 157.62 390.354 160.607 387.834 162.66C385.314 164.62 381.58 165.6 376.634 165.6ZM113.793 125V223H136.473V195.98H156.213C164.987 195.98 172.547 194.58 178.893 191.78C185.24 188.887 190.14 184.78 193.593 179.46C197.047 174.14 198.773 167.84 198.773 160.56C198.773 153.187 197.047 146.84 193.593 141.52C190.14 136.2 185.24 132.14 178.893 129.34C172.547 126.447 164.987 125 156.213 125H113.793ZM136.473 177.5H154.953C161.953 177.5 167.18 176.007 170.633 173.02C174.087 170.033 175.813 165.88 175.813 160.56C175.813 155.147 174.087 150.947 170.633 147.96C167.18 144.973 161.953 143.48 154.953 143.48H136.473V177.5ZM0.180176 223V125H89.5002V223H66.9602V143.48H22.7202V223H0.180176ZM967.739 100V2.00006H1046.84V20.0601H990.279V40.2201H1017.44C1029.29 40.2201 1038.3 42.6934 1044.46 47.6401C1050.71 52.5867 1053.84 59.7734 1053.84 69.2001C1053.84 78.9067 1050.39 86.4667 1043.48 91.8801C1036.57 97.2934 1026.82 100 1014.22 100H967.739ZM990.279 83.2001H1012.96C1018.75 83.2001 1023.18 82.0801 1026.26 79.8401C1029.34 77.5067 1030.88 74.1467 1030.88 69.7601C1030.88 61.1734 1024.91 56.8801 1012.96 56.8801H990.279V83.2001ZM873.54 2.00006V100H949.42V81.8001H896.08V59.1201H941.58V41.4801H896.08V20.2001H947.6V2.00006H873.54ZM631.411 2.00006V100H675.651C688.251 100 698.097 97.1067 705.191 91.3201C712.377 85.5334 715.971 77.0401 715.971 65.8401C715.971 55.2934 712.751 47.4067 706.311 42.1801C699.871 36.8601 690.724 34.2001 678.871 34.2001H653.951V2.00006H631.411ZM674.391 83.2001H653.951V51.0001H674.391C680.271 51.0001 684.844 52.2134 688.111 54.6401C691.471 56.9734 693.151 60.8467 693.151 66.2601C693.151 71.7667 691.471 75.9667 688.111 78.8601C684.751 81.7534 680.177 83.2001 674.391 83.2001ZM531.469 100V2.00006H573.889C582.663 2.00006 590.223 3.44673 596.569 6.34007C602.916 9.14006 607.816 13.2001 611.269 18.5201C614.723 23.8401 616.449 30.1867 616.449 37.5601C616.449 44.8401 614.723 51.1401 611.269 56.4601C607.816 61.7801 602.916 65.8867 596.569 68.7801C590.223 71.5801 582.663 72.9801 573.889 72.9801H554.149V100H531.469ZM572.629 54.5001H554.149V20.4801H572.629C579.629 20.4801 584.856 21.9734 588.309 24.9601C591.763 27.9467 593.489 32.1467 593.489 37.5601C593.489 42.8801 591.763 47.0334 588.309 50.0201C584.856 53.0067 579.629 54.5001 572.629 54.5001ZM437.27 2.00006V100H513.15V81.8001H459.81V59.1201H505.31V41.4801H459.81V20.2001H511.33V2.00006H437.27ZM332.954 100V2.00006H378.594C389.98 2.00006 398.847 4.19339 405.194 8.58006C411.54 12.9667 414.714 19.2201 414.714 27.3401C414.714 35.3667 411.727 41.6201 405.754 46.1001C404.29 47.175 402.708 48.1183 401.009 48.9298C404.544 50.0057 407.618 51.4891 410.234 53.3801C416.3 57.7667 419.334 64.1134 419.334 72.4201C419.334 81.0067 416.067 87.7734 409.534 92.7201C403.094 97.5734 393.667 100 381.254 100H332.954ZM355.494 83.2001H380.414C385.64 83.2001 389.607 82.1734 392.314 80.1201C395.02 78.0667 396.374 74.8934 396.374 70.6001C396.374 66.4934 395.02 63.4601 392.314 61.5001C389.607 59.4467 385.64 58.4201 380.414 58.4201H355.494V83.2001ZM355.494 42.6001H376.634C381.58 42.6001 385.314 41.6201 387.834 39.6601C390.354 37.6067 391.614 34.6201 391.614 30.7001C391.614 26.7801 390.354 23.8401 387.834 21.8801C385.314 19.8267 381.58 18.8001 376.634 18.8001H355.494V42.6001ZM240.442 97.9001C247.069 100.42 254.255 101.68 262.002 101.68C269.655 101.68 276.702 100.42 283.142 97.9001C289.675 95.3801 295.322 91.8801 300.082 87.4001C304.935 82.8267 308.715 77.4601 311.422 71.3001C314.129 65.0467 315.482 58.2801 315.482 51.0001C315.482 43.6267 314.129 36.9067 311.422 30.8401C308.715 24.6801 304.935 19.3134 300.082 14.7401C295.322 10.1667 289.675 6.62006 283.142 4.10006C276.702 1.58006 269.609 0.320068 261.862 0.320068C254.209 0.320068 247.115 1.58006 240.582 4.10006C234.049 6.62006 228.355 10.1667 223.502 14.7401C218.649 19.3134 214.869 24.6801 212.162 30.8401C209.549 37.0001 208.242 43.7201 208.242 51.0001C208.242 58.2801 209.549 65.0001 212.162 71.1601C214.869 77.3201 218.602 82.6867 223.362 87.2601C228.215 91.8334 233.909 95.3801 240.442 97.9001ZM273.902 80.1201C270.262 81.6134 266.249 82.3601 261.862 82.3601C257.475 82.3601 253.415 81.6134 249.682 80.1201C245.949 78.6267 242.682 76.4801 239.882 73.6801C237.175 70.8801 235.029 67.5667 233.442 63.7401C231.949 59.8201 231.202 55.5734 231.202 51.0001C231.202 46.3334 231.949 42.0867 233.442 38.2601C235.029 34.4334 237.222 31.1201 240.022 28.3201C242.822 25.5201 246.042 23.3734 249.682 21.8801C253.415 20.3867 257.475 19.6401 261.862 19.6401C266.249 19.6401 270.309 20.3867 274.042 21.8801C277.775 23.3734 280.995 25.5201 283.702 28.3201C286.502 31.1201 288.649 34.4334 290.142 38.2601C291.729 42.0867 292.522 46.3334 292.522 51.0001C292.522 55.6667 291.729 59.9134 290.142 63.7401C288.649 67.5667 286.502 70.8801 283.702 73.6801C280.902 76.4801 277.635 78.6267 273.902 80.1201ZM113.793 100V2.00006H156.213C164.987 2.00006 172.547 3.44673 178.893 6.34007C185.24 9.14006 190.14 13.2001 193.593 18.5201C197.047 23.8401 198.773 30.1867 198.773 37.5601C198.773 44.8401 197.047 51.1401 193.593 56.4601C190.14 61.7801 185.24 65.8867 178.893 68.7801C172.547 71.5801 164.987 72.9801 156.213 72.9801H136.473V100H113.793ZM154.953 54.5001H136.473V20.4801H154.953C161.953 20.4801 167.18 21.9734 170.633 24.9601C174.087 27.9467 175.813 32.1467 175.813 37.5601C175.813 42.8801 174.087 47.0334 170.633 50.0201C167.18 53.0067 161.953 54.5001 154.953 54.5001ZM0.180176 2.00006V100H22.7202V20.4801H66.9602V100H89.5002V2.00006H0.180176Z" fill="white" fill-opacity="0.05"/>
</svg>
